<svg preserveAspectRatio="none" width="100%" height="100%" overflow="visible" style="display: block;" viewBox="0 0 24 24" fill="none" xmlns="http://www.w3.org/2000/svg">
<g id="seedling 1" clip-path="url(#clip0_0_21)">
<path id="Vector" d="M23.971 1.416L23.89 -0.023L22.45 0C16.824 0.09 13.644 3.165 12.001 6.478C10.357 3.165 7.177 0.09 1.551 0L0.11 -0.023L0.029 1.416C-0.191 5.335 0.813 8.421 3.012 10.59C5.405 12.95 8.601 13.568 10.499 13.716V24H13.499V13.716C15.397 13.568 18.593 12.95 20.986 10.59C23.185 8.422 24.189 5.335 23.969 1.416H23.971ZM5.104 8.44C3.831 7.176 3.131 5.393 3.017 3.125C8.137 3.919 9.76 8.254 10.271 10.678C8.809 10.507 6.661 9.984 5.104 8.44ZM18.895 8.44C17.337 9.985 15.189 10.507 13.728 10.678C14.239 8.252 15.864 3.919 20.982 3.125C20.868 5.393 20.169 7.176 18.895 8.44Z" fill="var(--fill-0, #A7253B)"/>
</g>
<defs>
<clipPath id="clip0_0_21">
<rect width="24" height="24" fill="white"/>
</clipPath>
</defs>
</svg>
