<svg width="32" height="32" viewBox="0 0 32 32" fill="none" xmlns="http://www.w3.org/2000/svg">
<path d="M2.60742 2.60869H4.31111C4.632 2.60869 4.79245 2.60869 4.92157 2.6677C5.03536 2.7197 5.13179 2.80332 5.19936 2.90862C5.27603 3.02809 5.29872 3.18693 5.3441 3.50459L5.96146 7.82608M5.96146 7.82608L7.33349 17.9105C7.50761 19.1902 7.59466 19.8301 7.9006 20.3117C8.17018 20.7361 8.55666 21.0736 9.01353 21.2836C9.53202 21.5217 10.1778 21.5217 11.4693 21.5217H22.6318C23.8611 21.5217 24.4759 21.5217 24.9783 21.3005C25.4211 21.1055 25.8011 20.791 26.0756 20.3924C26.3869 19.9403 26.5019 19.3366 26.732 18.1289L28.4584 9.06481C28.5394 8.63974 28.5799 8.42721 28.5212 8.26108C28.4698 8.11534 28.3682 7.99262 28.2346 7.9148C28.0824 7.82608 27.8661 7.82608 27.4333 7.82608H5.96146ZM13.0422 27.3913C13.0422 28.1117 12.4582 28.6956 11.7379 28.6956C11.0175 28.6956 10.4335 28.1117 10.4335 27.3913C10.4335 26.6709 11.0175 26.0869 11.7379 26.0869C12.4582 26.0869 13.0422 26.6709 13.0422 27.3913ZM23.477 27.3913C23.477 28.1117 22.893 28.6956 22.1726 28.6956C21.4522 28.6956 20.8683 28.1117 20.8683 27.3913C20.8683 26.6709 21.4522 26.0869 22.1726 26.0869C22.893 26.0869 23.477 26.6709 23.477 27.3913Z" stroke="#A7253B" stroke-width="2.6087" stroke-linecap="round" stroke-linejoin="round"/>
</svg>
