<svg preserveAspectRatio="none" width="100%" height="100%" overflow="visible" style="display: block;" viewBox="0 0 24 24" fill="none" xmlns="http://www.w3.org/2000/svg">
<g id="Frame" clip-path="url(#clip0_0_16)">
<path id="Vector 1" d="M2 18L22 7" stroke="var(--stroke-0, #A7253B)" stroke-width="2.5" stroke-linecap="round"/>
<path id="Subtract" d="M20.9229 11.5684C21.1339 12.3444 21.25 13.1594 21.25 14C21.25 19.1086 17.1086 23.25 12 23.25C9.2934 23.25 6.85853 22.0873 5.16699 20.2344L7.44629 18.9815C8.64679 20.0795 10.2449 20.75 12 20.75C15.7279 20.75 18.75 17.7279 18.75 14C18.75 13.5973 18.7128 13.2037 18.6455 12.8213L20.9229 11.5684ZM11.127 1.1045C11.6123 0.631907 12.3867 0.631906 12.8721 1.1045L12.8916 1.12403C12.9041 1.13629 12.9226 1.15447 12.9463 1.17774C12.9937 1.22438 13.0633 1.29241 13.1514 1.37989C13.3274 1.55484 13.5792 1.80756 13.8848 2.11915C14.4953 2.74178 15.3232 3.60426 16.1904 4.56153C17.0557 5.51663 17.971 6.57782 18.751 7.59669C19.1748 8.15039 19.5777 8.71927 19.916 9.26856L17.7236 10.4746C17.4683 10.0706 17.1463 9.61327 16.7666 9.11719C16.0445 8.17393 15.1787 7.16845 14.3379 6.24024C13.4989 5.3141 12.6946 4.4759 12.0996 3.86915C12.0659 3.83473 12.0324 3.80145 12 3.76856C11.9676 3.80145 11.9341 3.83473 11.9004 3.86915C11.3054 4.4759 10.5011 5.3141 9.66211 6.24024C8.82126 7.16845 7.95548 8.17393 7.2334 9.11719C6.49376 10.0834 5.97017 10.9008 5.74023 11.4688C5.42453 12.2487 5.25 13.1026 5.25 14C5.25001 15.0616 5.496 16.0654 5.93262 16.959L3.74121 18.165C3.10854 16.913 2.75001 15.4987 2.75 14C2.75 12.7758 2.98861 11.6041 3.42285 10.5313L3.57422 10.1875C3.96216 9.37335 4.58215 8.46783 5.24902 7.59669C6.02901 6.57782 6.94435 5.51663 7.80957 4.56153C8.67675 3.60426 9.5047 2.74178 10.1152 2.11915C10.4208 1.80756 10.6726 1.55484 10.8486 1.37989C10.9367 1.29241 11.0063 1.22438 11.0537 1.17774C11.0774 1.15447 11.0959 1.13629 11.1084 1.12403L11.126 1.10645L11.127 1.1045Z" fill="var(--fill-0, #A7253B)"/>
</g>
<defs>
<clipPath id="clip0_0_16">
<rect width="24" height="24" fill="white"/>
</clipPath>
</defs>
</svg>
