<svg width="20" height="20" viewBox="0 0 20 20" fill="none" xmlns="http://www.w3.org/2000/svg">
<g clip-path="url(#clip0_214_5975)">
<path d="M5.83366 7.91673L1.66699 10.0001L9.70216 14.0177C9.81149 14.0723 9.86616 14.0997 9.92349 14.1104C9.97424 14.1199 10.0264 14.1199 10.0772 14.1104C10.1345 14.0997 10.1892 14.0723 10.2985 14.0177L18.3337 10.0001L14.167 7.91673M5.83366 12.0834L1.66699 14.1668L9.70216 18.1843C9.81149 18.239 9.86616 18.2663 9.92349 18.2771C9.97424 18.2866 10.0264 18.2866 10.0772 18.2771C10.1345 18.2663 10.1892 18.239 10.2985 18.1843L18.3337 14.1668L14.167 12.0834M1.66699 5.8334L9.70216 1.8158C9.81149 1.76115 9.86616 1.73381 9.92349 1.72306C9.97424 1.71353 10.0264 1.71353 10.0772 1.72306C10.1345 1.73381 10.1892 1.76115 10.2985 1.8158L18.3337 5.8334L10.2985 9.85101C10.1892 9.90568 10.1345 9.93301 10.0772 9.94376C10.0264 9.95326 9.97424 9.95326 9.92349 9.94376C9.86616 9.93301 9.81149 9.90568 9.70216 9.85101L1.66699 5.8334Z" stroke="#A7253B" stroke-width="1.66667" stroke-linecap="round" stroke-linejoin="round"/>
</g>
<defs>
<clipPath id="clip0_214_5975">
<rect width="20" height="20" fill="white"/>
</clipPath>
</defs>
</svg>
