<svg width="20" height="20" viewBox="0 0 20 20" fill="none" xmlns="http://www.w3.org/2000/svg">
<path d="M18.3327 8.33333H1.66602M9.16602 11.6667H4.99935M1.66602 6.83333V13.1667C1.66602 14.1001 1.66602 14.5668 1.84767 14.9233C2.00746 15.2369 2.26242 15.4919 2.57603 15.6517C2.93255 15.8333 3.39926 15.8333 4.33268 15.8333H15.666C16.5994 15.8333 17.0662 15.8333 17.4227 15.6517C17.7363 15.4919 17.9913 15.2369 18.151 14.9233C18.3327 14.5668 18.3327 14.1001 18.3327 13.1667V6.83333C18.3327 5.89992 18.3327 5.4332 18.151 5.07668C17.9913 4.76308 17.7363 4.50812 17.4227 4.34832C17.0662 4.16667 16.5994 4.16667 15.666 4.16667H4.33268C3.39927 4.16667 2.93255 4.16667 2.57603 4.34832C2.26243 4.50811 2.00746 4.76307 1.84767 5.07668C1.66602 5.4332 1.66602 5.89991 1.66602 6.83333Z" stroke="#A7253B" stroke-width="1.66667" stroke-linecap="round" stroke-linejoin="round"/>
</svg>
