<svg width="18" height="18" viewBox="0 0 18 18" fill="none" xmlns="http://www.w3.org/2000/svg">
<path d="M11.9999 6C11.9999 6.79565 11.6839 7.55872 11.1212 8.1213C10.5587 8.68395 9.79562 9 8.99994 9C8.20427 9 7.44123 8.68395 6.87861 8.1213C6.31601 7.55872 5.99994 6.79565 5.99994 6M2.72485 5.55104L2.19985 11.8511C2.08707 13.2044 2.03067 13.8812 2.25945 14.4032C2.46045 14.8618 2.80871 15.2403 3.24907 15.4787C3.75029 15.75 4.42933 15.75 5.78742 15.75H12.2125C13.5705 15.75 14.2496 15.75 14.7508 15.4787C15.1912 15.2403 15.5394 14.8618 15.7404 14.4032C15.9692 13.8812 15.9128 13.2044 15.8 11.8511L15.275 5.55104C15.178 4.38656 15.1295 3.80432 14.8716 3.36364C14.6445 2.97558 14.3063 2.66445 13.9008 2.47039C13.4402 2.25 12.856 2.25 11.6875 2.25H6.31242C5.1439 2.25 4.55965 2.25 4.09907 2.47038C3.69349 2.66445 3.35536 2.97558 3.12828 3.36364C2.87041 3.80432 2.82189 4.38656 2.72485 5.55104Z" stroke="#A7253B" stroke-width="1.5" stroke-linecap="round" stroke-linejoin="round"/>
</svg>
