<svg width="30" height="30" viewBox="0 0 30 30" fill="none" xmlns="http://www.w3.org/2000/svg">
<path d="M13.1239 16.8751L26.2489 3.75006M13.2834 17.2851L16.5685 25.7326C16.8579 26.4769 17.0026 26.8489 17.2111 26.9575C17.3919 27.0517 17.6073 27.0519 17.788 26.9579C17.9966 26.8495 18.1419 26.4776 18.4321 25.7337L26.67 4.62406C26.9321 3.95259 27.0631 3.61685 26.9914 3.40231C26.9291 3.216 26.783 3.06979 26.5966 3.00755C26.3821 2.93589 26.0464 3.0669 25.3749 3.32894L4.26524 11.5669C3.52139 11.8571 3.14947 12.0023 3.04109 12.2109C2.94712 12.3918 2.94725 12.6071 3.04142 12.7879C3.15005 12.9964 3.52215 13.141 4.26632 13.4305L12.7139 16.7156C12.8649 16.7744 12.9404 16.8037 13.004 16.8491C13.0604 16.8892 13.1096 16.9386 13.1499 16.995C13.1953 17.0585 13.2246 17.1341 13.2834 17.2851Z" stroke="#A7253B" stroke-width="2.5" stroke-linecap="round" stroke-linejoin="round"/>
</svg>
