<svg preserveAspectRatio="none" width="100%" height="100%" overflow="visible" style="display: block;" viewBox="0 0 40 40" fill="none" xmlns="http://www.w3.org/2000/svg">
<g id="Frame 6">
<rect width="40" height="40" rx="20" fill="var(--fill-0, white)"/>
<path id="Vector" d="M30 20.0611C30 14.5045 25.5229 10 20 10C14.4771 10 10 14.5045 10 20.0611C10 25.0828 13.6568 29.2452 18.4375 30V22.9694H15.8984V20.0611H18.4375V17.8445C18.4375 15.323 19.9305 13.9301 22.2146 13.9301C23.3088 13.9301 24.4531 14.1266 24.4531 14.1266V16.6026H23.1922C21.95 16.6026 21.5625 17.3782 21.5625 18.1739V20.0611H24.3359L23.8926 22.9694H21.5625V30C26.3432 29.2452 30 25.083 30 20.0611Z" fill="var(--fill-0, #A7253B)"/>
</g>
</svg>
