<svg preserveAspectRatio="none" width="100%" height="100%" overflow="visible" style="display: block;" viewBox="0 0 40 40" fill="none" xmlns="http://www.w3.org/2000/svg">
<g id="Frame 2">
<rect width="40" height="40" rx="20" fill="var(--fill-0, white)"/>
<path id="Vector" fill-rule="evenodd" clip-rule="evenodd" d="M24.3333 10.25H15.6667C12.6751 10.25 10.25 12.6751 10.25 15.6667V24.3333C10.25 27.3249 12.6751 29.75 15.6667 29.75H24.3333C27.3249 29.75 29.75 27.3249 29.75 24.3333V15.6667C29.75 12.6751 27.3249 10.25 24.3333 10.25ZM27.8542 24.3333C27.8482 26.2753 26.2753 27.8482 24.3333 27.8542H15.6667C13.7246 27.8482 12.1518 26.2753 12.1458 24.3333V15.6667C12.1518 13.7246 13.7246 12.1518 15.6667 12.1458H24.3333C26.2753 12.1518 27.8482 13.7246 27.8542 15.6667V24.3333ZM25.1458 15.9375C25.7442 15.9375 26.2292 15.4525 26.2292 14.8542C26.2292 14.2559 25.7442 13.7708 25.1458 13.7708C24.5475 13.7708 24.0625 14.2559 24.0625 14.8542C24.0625 15.4525 24.5475 15.9375 25.1458 15.9375ZM20 15.125C17.3076 15.125 15.125 17.3076 15.125 20C15.125 22.6924 17.3076 24.875 20 24.875C22.6924 24.875 24.875 22.6924 24.875 20C24.8779 18.7062 24.3652 17.4645 23.4503 16.5497C22.5354 15.6348 21.2938 15.1221 20 15.125ZM17.0208 20C17.0208 21.6454 18.3546 22.9792 20 22.9792C21.6454 22.9792 22.9792 21.6454 22.9792 20C22.9792 18.3546 21.6454 17.0208 20 17.0208C18.3546 17.0208 17.0208 18.3546 17.0208 20Z" fill="var(--fill-0, #A7253B)"/>
</g>
</svg>
