<svg width="208" height="199" viewBox="0 0 208 199" fill="none" xmlns="http://www.w3.org/2000/svg">
<path d="M179.109 168.858C179.109 105.201 144.04 64.2034 103.043 64.2034C60.4201 64.2034 28.5948 112.214 28.5948 168.858C28.5948 225.508 60.4201 273.519 103.043 273.519C144.04 273.519 179.109 231.982 179.109 168.858ZM179.109 0H207.158V276.756H179.109V255.175C179.109 250.319 178.569 245.47 174.793 245.47C171.016 244.931 167.239 251.405 162.923 255.175V254.642C147.277 270.289 126.782 280 102.503 280C44.2344 280 0 229.818 0 168.858C0 107.898 44.2344 57.7225 102.503 57.7225C126.782 57.7225 147.277 67.4339 162.923 83.0801V82.5406C167.239 86.3173 171.016 92.7916 174.793 92.2521C178.569 92.2521 179.109 86.8568 179.109 82.0011V0Z" fill="#9C5243" fill-opacity="0.1"/>
</svg>
