<svg width="20" height="20" viewBox="0 0 20 20" fill="none" xmlns="http://www.w3.org/2000/svg">
<path fill-rule="evenodd" clip-rule="evenodd" d="M14.0833 0H5.41667C2.42513 0 0 2.42513 0 5.41667V14.0833C0 17.0749 2.42513 19.5 5.41667 19.5H14.0833C17.0749 19.5 19.5 17.0749 19.5 14.0833V5.41667C19.5 2.42513 17.0749 0 14.0833 0ZM17.6042 14.0833C17.5982 16.0253 16.0253 17.5982 14.0833 17.6042H5.41667C3.47463 17.5982 1.90178 16.0253 1.89583 14.0833V5.41667C1.90178 3.47463 3.47463 1.90178 5.41667 1.89583H14.0833C16.0253 1.90178 17.5982 3.47463 17.6042 5.41667V14.0833ZM14.8958 5.6875C15.4942 5.6875 15.9792 5.20247 15.9792 4.60417C15.9792 4.00586 15.4942 3.52083 14.8958 3.52083C14.2975 3.52083 13.8125 4.00586 13.8125 4.60417C13.8125 5.20247 14.2975 5.6875 14.8958 5.6875ZM9.75 4.875C7.05761 4.875 4.875 7.05761 4.875 9.75C4.875 12.4424 7.05761 14.625 9.75 14.625C12.4424 14.625 14.625 12.4424 14.625 9.75C14.6279 8.45617 14.1152 7.21453 13.2003 6.29967C12.2854 5.38481 11.0438 4.87212 9.75 4.875ZM6.77083 9.75C6.77083 11.3954 8.10463 12.7292 9.75 12.7292C11.3954 12.7292 12.7292 11.3954 12.7292 9.75C12.7292 8.10463 11.3954 6.77083 9.75 6.77083C8.10463 6.77083 6.77083 8.10463 6.77083 9.75Z" fill="#9C5243"/>
</svg>
