<svg preserveAspectRatio="none" width="100%" height="100%" overflow="visible" style="display: block;" viewBox="0 0 98 32" fill="none" xmlns="http://www.w3.org/2000/svg">
<g id="Logotype">
<path id="path22" d="M20.4694 19.2981C20.4694 12.0229 16.4615 7.33754 11.7761 7.33754C6.90496 7.33754 3.26778 12.8245 3.26778 19.2981C3.26778 25.7724 6.90496 31.2593 11.7761 31.2593C16.4615 31.2593 20.4694 26.5123 20.4694 19.2981ZM20.4694 7.62152e-06H23.6749V31.6293H20.4694V29.1629C20.4694 28.6079 20.4077 28.0538 19.9761 28.0538C19.5445 27.9921 19.1129 28.732 18.6196 29.1629V29.102C16.8315 30.8901 14.4891 32 11.7144 32C5.05516 32 -0.000194223 26.2649 -0.000194223 19.2981C-0.000194223 12.3312 5.05516 6.59686 11.7144 6.59686C14.4891 6.59686 16.8315 7.70674 18.6196 9.49488V9.43322C19.1129 9.86484 19.5445 10.6048 19.9761 10.5431C20.4077 10.5431 20.4694 9.9265 20.4694 9.37156V7.62152e-06Z" fill="var(--fill-0, #9C5243)"/>
<path id="path26" d="M48.3399 19.2981C48.3399 12.8245 44.5787 7.33754 39.7083 7.33754C34.8988 7.33754 31.1383 12.8245 31.1383 19.2981C31.1383 25.7724 34.8988 31.2593 39.7083 31.2593C44.5787 31.2593 48.3399 25.7724 48.3399 19.2981ZM27.8703 19.2981C27.8703 12.3312 33.1114 6.59686 39.7083 6.59686C46.3051 6.59686 51.5462 12.3312 51.5462 19.2981C51.5462 26.2649 46.3051 32 39.7083 32C33.1114 32 27.8703 26.2649 27.8703 19.2981Z" fill="var(--fill-0, #9C5243)"/>
<path id="path30" d="M55.7403 26.697C56.6652 28.4235 59.0083 31.1358 62.7688 31.1358C66.4068 31.1358 68.9348 29.2243 68.9348 26.4504C68.9348 20.531 53.7056 19.7302 53.7056 12.8859C53.7056 9.06303 57.5285 6.53497 62.4605 6.53497C67.0226 6.53497 70.1056 7.95315 71.7095 10.3586L69.798 12.3927C68.9348 10.6662 66.7767 7.39897 62.4605 7.39897C59.4392 7.39897 56.8502 8.81639 56.8502 11.6527C56.8502 17.8187 72.202 17.8804 72.202 25.5255C72.202 29.1018 68.2558 31.9998 62.8929 31.9998C58.4526 31.9998 55.2471 30.5192 53.7056 28.2994L55.7403 26.697Z" fill="var(--fill-0, #9C5243)"/>
<path id="path34" d="M94.77 19.1753C94.77 12.7011 91.0095 7.21408 86.1384 7.21408C81.3297 7.21408 77.5684 12.7011 77.5684 19.1753H94.77ZM97.9763 19.9153H77.5684C77.8767 26.0188 81.5763 30.8283 87.2483 30.8283C91.0712 30.8283 94.5241 28.1769 95.7566 24.2315L97.1131 25.0323C95.449 29.1627 91.3178 31.9382 86.8166 31.9382C79.5415 31.9382 74.3004 26.1422 74.3004 19.1753C74.3004 12.2078 79.5415 6.47416 86.1384 6.47416C92.7352 6.47416 97.9763 12.2078 97.9763 19.1753V19.9153Z" fill="var(--fill-0, #9C5243)"/>
<path id="path36" d="M93.1995 2.65824H78.6554V1.89701H93.1995V2.65824Z" fill="var(--fill-0, #9C5243)"/>
</g>
</svg>
