<svg width="98" height="32" viewBox="0 0 98 32" fill="none" xmlns="http://www.w3.org/2000/svg">
<path d="M20.4696 19.298C20.4696 12.0229 16.4617 7.33754 11.7763 7.33754C6.90515 7.33754 3.26798 12.8245 3.26798 19.298C3.26798 25.7723 6.90515 31.2593 11.7763 31.2593C16.4617 31.2593 20.4696 26.5123 20.4696 19.298ZM20.4696 0H23.6751V31.6293H20.4696V29.1629C20.4696 28.6079 20.4079 28.0538 19.9763 28.0538C19.5447 27.9921 19.1131 28.732 18.6198 29.1629V29.102C16.8316 30.8901 14.4893 32 11.7146 32C5.05535 32 0 26.2649 0 19.298C0 12.3312 5.05535 6.59686 11.7146 6.59686C14.4893 6.59686 16.8316 7.70674 18.6198 9.49487V9.43321C19.1131 9.86483 19.5447 10.6048 19.9763 10.5431C20.4079 10.5431 20.4696 9.92649 20.4696 9.37155V0Z" fill="#FEF8F4"/>
<path d="M48.3402 19.298C48.3402 12.8245 44.5789 7.33754 39.7086 7.33754C34.8991 7.33754 31.1386 12.8245 31.1386 19.298C31.1386 25.7723 34.8991 31.2593 39.7086 31.2593C44.5789 31.2593 48.3402 25.7723 48.3402 19.298ZM27.8706 19.298C27.8706 12.3312 33.1117 6.59686 39.7086 6.59686C46.3054 6.59686 51.5465 12.3312 51.5465 19.298C51.5465 26.2649 46.3054 32 39.7086 32C33.1117 32 27.8706 26.2649 27.8706 19.298Z" fill="#FEF8F4"/>
<path d="M55.7406 26.6972C56.6655 28.4237 59.0086 31.136 62.7691 31.136C66.407 31.136 68.9351 29.2245 68.9351 26.4506C68.9351 20.5312 53.7058 19.7304 53.7058 12.8862C53.7058 9.06325 57.5287 6.53519 62.4608 6.53519C67.0228 6.53519 70.1058 7.95337 71.7098 10.3589L69.7983 12.3929C68.9351 10.6664 66.777 7.39919 62.4608 7.39919C59.4394 7.39919 56.8505 8.81661 56.8505 11.653C56.8505 17.819 72.2023 17.8806 72.2023 25.5257C72.2023 29.102 68.256 32 62.8931 32C58.4529 32 55.2473 30.5194 53.7058 28.2996L55.7406 26.6972Z" fill="#FEF8F4"/>
<path d="M94.7704 19.1751C94.7704 12.7008 91.0099 7.21386 86.1387 7.21386C81.33 7.21386 77.5688 12.7008 77.5688 19.1751H94.7704ZM97.9767 19.9151H77.5688C77.8771 26.0186 81.5767 30.8281 87.2486 30.8281C91.0715 30.8281 94.5245 28.1767 95.7569 24.2313L97.1134 25.0321C95.4494 29.1625 91.3182 31.938 86.817 31.938C79.5419 31.938 74.3008 26.142 74.3008 19.1751C74.3008 12.2076 79.5419 6.47394 86.1387 6.47394C92.7356 6.47394 97.9767 12.2076 97.9767 19.1751V19.9151Z" fill="#FEF8F4"/>
<path d="M93.1999 2.6582H78.6558V1.89697H93.1999V2.6582Z" fill="#FEF8F4"/>
</svg>
