<svg width="162" height="142" viewBox="0 0 162 142" fill="none" xmlns="http://www.w3.org/2000/svg">
<path d="M17.8043 176.418C25.8972 191.524 46.3991 215.257 79.3035 215.257C111.135 215.257 133.256 198.532 133.256 174.26C133.256 122.465 0 115.458 0 55.5709C0 22.1204 33.4505 -0.000152588 76.6059 -0.000152588C116.524 -0.000152588 143.5 12.4089 157.535 33.457L140.809 51.2547C133.256 36.148 114.373 7.55984 76.6059 7.55984C50.1691 7.55984 27.5158 19.9623 27.5158 44.7804C27.5158 98.7329 161.844 99.2724 161.844 166.167C161.844 197.459 127.315 222.817 80.3892 222.817C41.5367 222.817 13.4881 209.862 0 190.439L17.8043 176.418Z" fill="#9C5243" fill-opacity="0.1"/>
</svg>
